<svg width="32" height="36" viewBox="0 0 32 36" fill="none" xmlns="http://www.w3.org/2000/svg">
<path d="M17.9459 34.0714C17.9459 35.1365 17.0747 36 16 36C14.9253 36 14.054 35.1365 14.054 34.0714C14.054 33.0063 14.9253 32.1428 16 32.1428C17.0747 32.1428 17.9459 33.0063 17.9459 34.0714Z" fill="#868686"/>
<ellipse cx="23.027" cy="30.1071" rx="1.94595" ry="1.92857" fill="#868686"/>
<ellipse cx="23.027" cy="22.0714" rx="1.94595" ry="1.92857" fill="#868686"/>
<ellipse cx="23.027" cy="14.0357" rx="1.94595" ry="1.92857" fill="#868686"/>
<ellipse cx="23.027" cy="6.00001" rx="1.94595" ry="1.92857" fill="#868686"/>
<ellipse cx="8.97298" cy="30.1071" rx="1.94595" ry="1.92857" fill="#868686"/>
<ellipse cx="8.97298" cy="22.0714" rx="1.94595" ry="1.92857" fill="#868686"/>
<ellipse cx="8.97298" cy="14.0357" rx="1.94595" ry="1.92857" fill="#868686"/>
<ellipse cx="8.97298" cy="6.00001" rx="1.94595" ry="1.92857" fill="#868686"/>
<ellipse cx="16" cy="26.0357" rx="1.94595" ry="1.92857" fill="#868686"/>
<ellipse cx="30.054" cy="26.0357" rx="1.94595" ry="1.92857" fill="#868686"/>
<ellipse cx="30.054" cy="18" rx="1.94595" ry="1.92857" fill="#868686"/>
<ellipse cx="30.054" cy="9.96429" rx="1.94595" ry="1.92857" fill="#868686"/>
<ellipse cx="1.94595" cy="26.0357" rx="1.94595" ry="1.92857" fill="#868686"/>
<ellipse cx="1.94595" cy="18" rx="1.94595" ry="1.92857" fill="#868686"/>
<ellipse cx="1.94595" cy="9.96429" rx="1.94595" ry="1.92857" fill="#868686"/>
<ellipse cx="16" cy="18" rx="1.94595" ry="1.92857" fill="#868686"/>
<ellipse cx="16" cy="9.96429" rx="1.94595" ry="1.92857" fill="#868686"/>
<ellipse cx="16" cy="1.92857" rx="1.94595" ry="1.92857" fill="#868686"/>
<rect x="15.5676" y="1.82144" width="0.972973" height="30.75" fill="#868686"/>
<rect width="0.966465" height="17.5025" transform="matrix(0.503367 -0.864073 0.867956 0.496641 15.1058 2.13602)" fill="#868686"/>
<rect width="0.966465" height="17.5025" transform="matrix(0.503367 -0.864073 0.867956 0.496641 15.5676 18.1922)" fill="#868686"/>
</svg>
